# xmcd CD database file
#
# Track frame offsets:
#        150
#        28207
#        40102
#        50882
#        68792
#        87665
#        110720
#        124597
#
# Disc length: 1906 seconds
#
# Revision: 0
# Processed by: cddbd v1.5.2PL0 Copyright (c) Steve Scherf et al.
# Submitted via: CUERipper 2.1.6
#
DISCID=74077008
DTITLE=Johnny Cash - Bitter Tears
DYEAR=1964
DGENRE=Country
TTITLE0=As Long as the Grass Shall Grow
TTITLE1=Apache Tears
TTITLE2=Custer
TTITLE3=The Talking Leaves
TTITLE4=The Ballad of Ira Hayes
TTITLE5=Drums
TTITLE6=White Girl
TTITLE7=The Vanishing Race
EXTD=
EXTT0=
EXTT1=
EXTT2=
EXTT3=
EXTT4=
EXTT5=
EXTT6=
EXTT7=
PLAYORDER=
